<svg id="svg" version="1.1" xmlns="http://www.w3.org/2000/svg" xmlns:xlink="http://www.w3.org/1999/xlink" width="400" height="400" viewBox="0, 0, 400,400"><g id="svgg"><path id="path0" d="M214.812 161.578 L 210.624 161.800 214.812 165.164 C 217.115 167.014,219.360 168.934,219.800 169.431 C 220.792 170.551,224.572 173.585,226.647 174.928 C 227.501 175.480,230.080 177.472,232.379 179.354 C 234.677 181.236,236.590 182.736,236.631 182.688 C 236.671 182.640,236.834 177.785,236.993 171.900 L 237.282 161.200 228.141 161.278 C 223.114 161.321,217.115 161.456,214.812 161.578 M380.200 167.206 C 366.788 170.624,354.102 173.876,347.295 175.642 C 343.057 176.742,339.425 177.539,339.223 177.414 C 339.021 177.289,338.735 177.382,338.587 177.621 C 338.440 177.859,338.067 177.958,337.760 177.840 C 337.452 177.722,337.200 177.782,337.200 177.973 C 337.200 178.164,336.255 178.536,335.100 178.800 C 332.695 179.350,323.077 181.840,316.600 183.589 C 306.049 186.439,301.414 187.634,300.087 187.845 C 299.306 187.969,298.202 188.250,297.633 188.470 C 297.065 188.689,291.380 190.188,285.000 191.800 C 273.176 194.788,265.460 196.787,261.700 197.836 L 259.600 198.422 259.600 225.011 L 259.600 251.600 273.000 251.600 L 286.400 251.600 286.400 224.533 C 286.400 209.647,286.480 197.546,286.577 197.643 C 286.674 197.741,286.956 200.606,287.203 204.010 C 288.851 226.696,295.335 239.799,308.333 246.712 C 316.854 251.244,319.865 251.600,349.711 251.600 L 373.519 251.600 381.759 240.796 C 386.292 234.853,390.000 229.910,390.000 229.811 C 390.000 229.712,375.105 229.570,356.900 229.497 C 319.775 229.346,322.180 229.533,315.680 226.300 C 304.648 220.813,300.965 207.915,307.529 197.758 C 310.303 193.466,316.813 189.391,324.400 187.197 C 326.050 186.720,329.591 185.616,332.268 184.742 C 334.945 183.869,337.510 183.127,337.968 183.092 C 338.426 183.058,338.800 182.869,338.800 182.672 C 338.800 182.475,339.058 182.414,339.374 182.535 C 339.690 182.656,340.005 182.591,340.074 182.390 C 340.178 182.088,350.853 178.237,360.000 175.202 C 362.262 174.452,365.501 173.318,376.600 169.391 C 387.405 165.569,387.969 165.227,380.200 167.206 " stroke="none" fill="#333333" fill-rule="evenodd"></path><path id="path1" d="M39.739 102.858 C 3.692 106.292,-1.629 138.847,26.867 181.598 C 48.662 214.295,82.697 244.471,125.800 269.311 C 163.090 290.801,205.348 300.481,226.433 292.362 C 240.150 287.079,248.108 272.949,245.223 259.000 L 244.892 257.400 244.846 258.917 C 243.871 291.057,196.154 291.464,139.600 259.814 C 54.508 212.194,2.904 129.010,48.775 113.409 C 70.370 106.063,113.388 118.642,151.500 143.445 C 153.975 145.056,156.000 146.293,156.000 146.194 C 156.000 145.879,145.655 139.094,138.200 134.519 C 101.575 112.044,65.402 100.412,39.739 102.858 M209.015 166.865 C 208.895 167.379,208.842 186.700,208.898 209.800 L 209.000 251.800 222.800 251.800 L 236.600 251.800 236.800 220.200 L 237.000 188.600 235.000 186.733 C 233.900 185.706,232.595 184.484,232.100 184.019 C 231.605 183.553,231.200 183.266,231.200 183.382 C 231.200 183.604,230.223 182.859,228.336 181.200 C 227.037 180.058,226.913 179.955,224.200 177.796 C 223.100 176.920,221.909 175.888,221.553 175.502 C 221.197 175.116,220.747 174.798,220.553 174.796 C 220.359 174.793,219.345 174.003,218.300 173.039 C 217.255 172.075,216.400 171.365,216.400 171.462 C 216.400 171.558,215.957 171.223,215.416 170.718 C 214.874 170.213,213.960 169.440,213.383 169.000 C 212.807 168.560,212.125 168.008,211.868 167.773 C 210.115 166.175,209.241 165.897,209.015 166.865 " stroke="none" fill="#fb0404" fill-rule="evenodd"></path><path id="path2" d="M32.240 97.409 C 15.730 100.076,5.258 107.995,1.003 121.029 C -0.506 125.653,-0.517 142.061,0.985 148.261 C 6.316 170.265,21.391 193.960,46.533 219.855 L 52.800 226.310 52.800 237.608 C 52.800 245.014,52.960 249.440,53.263 250.454 L 53.727 252.000 65.263 252.000 L 76.800 252.000 76.800 249.600 C 76.800 246.708,76.802 246.707,79.806 249.135 C 124.439 285.206,185.348 308.129,219.796 301.821 C 238.304 298.432,250.925 285.788,250.763 270.800 C 250.746 269.240,250.646 269.462,250.011 272.472 C 244.158 300.226,211.217 308.169,165.781 292.782 C 76.379 262.507,-10.770 169.472,5.242 121.400 C 11.543 102.480,32.503 93.934,61.100 98.623 C 61.815 98.740,62.400 98.676,62.400 98.480 C 62.400 97.158,38.949 96.326,32.240 97.409 M54.251 161.100 C 51.865 168.500,51.660 174.561,53.688 177.765 C 55.502 180.630,61.090 187.894,64.822 192.241 C 65.747 193.318,67.246 195.093,68.152 196.185 C 70.388 198.878,86.498 214.960,89.205 217.200 C 90.401 218.190,92.104 219.639,92.990 220.421 C 101.294 227.750,102.690 228.619,103.715 227.100 C 104.048 226.605,107.489 223.005,111.361 219.101 L 118.400 212.002 118.400 226.192 L 118.400 240.382 122.500 243.125 C 132.752 249.983,136.767 252.160,139.482 252.333 L 142.000 252.493 142.000 247.479 C 142.000 244.322,142.223 241.594,142.602 240.115 C 143.121 238.087,143.190 232.394,143.102 198.583 L 143.000 159.400 138.641 159.286 L 134.282 159.172 133.241 160.367 C 132.668 161.024,130.736 163.146,128.946 165.081 C 127.156 167.016,121.323 173.370,115.985 179.200 C 110.646 185.030,105.001 191.156,103.439 192.813 C 101.878 194.470,99.892 196.622,99.027 197.595 C 98.104 198.633,97.386 199.158,97.289 198.866 C 97.197 198.592,96.623 197.881,96.013 197.284 C 95.403 196.688,93.862 195.030,92.590 193.600 C 91.317 192.170,89.617 190.280,88.812 189.400 C 80.478 180.288,66.263 164.473,63.745 161.512 L 61.800 159.224 58.332 159.212 L 54.864 159.200 54.251 161.100 M148.295 159.838 C 148.133 160.000,148.000 180.803,148.000 206.067 L 148.000 252.000 159.800 252.000 L 171.600 252.000 171.600 238.400 L 171.600 224.800 177.722 224.800 L 183.843 224.800 191.753 238.400 L 199.663 252.000 204.331 252.000 L 209.000 252.000 208.800 236.100 C 208.690 227.355,208.462 219.987,208.293 219.728 C 208.125 219.468,208.170 219.142,208.393 219.004 C 208.662 218.838,208.800 209.774,208.800 192.261 L 208.800 165.769 206.689 164.490 C 204.011 162.867,200.248 161.389,196.629 160.540 C 193.610 159.831,148.951 159.183,148.295 159.838 M288.914 161.502 L 241.227 161.603 241.114 171.302 C 241.051 176.636,241.054 181.840,241.121 182.866 L 241.241 184.732 249.788 184.866 C 254.489 184.940,258.434 185.100,258.556 185.222 C 258.814 185.481,259.161 189.642,259.184 192.745 L 259.200 194.891 261.100 194.623 C 262.145 194.476,263.587 194.086,264.304 193.757 C 265.022 193.428,265.807 193.281,266.049 193.430 C 266.291 193.580,266.608 193.510,266.754 193.275 C 266.899 193.040,267.824 192.738,268.809 192.604 C 271.121 192.289,271.670 192.176,272.400 191.865 C 272.730 191.724,273.400 191.552,273.890 191.482 C 274.379 191.411,274.904 191.229,275.056 191.077 C 275.209 190.925,275.673 190.800,276.088 190.800 C 276.504 190.800,278.495 190.336,280.513 189.768 C 282.531 189.201,284.546 188.719,284.991 188.698 C 285.436 188.676,286.029 188.485,286.310 188.272 C 286.590 188.060,286.928 187.995,287.060 188.127 C 287.193 188.260,287.909 188.115,288.651 187.805 C 289.393 187.494,290.000 187.317,290.000 187.411 C 290.000 187.504,290.455 187.407,291.010 187.196 C 292.045 186.803,292.892 186.586,295.000 186.174 C 295.660 186.045,296.560 185.799,297.000 185.626 C 297.440 185.453,299.150 185.000,300.800 184.617 C 302.450 184.235,304.568 183.671,305.507 183.364 C 306.446 183.056,307.346 182.825,307.507 182.850 C 307.668 182.874,307.890 182.860,308.000 182.818 C 308.110 182.775,308.620 182.663,309.134 182.568 C 309.648 182.472,311.718 181.916,313.734 181.331 C 315.750 180.746,317.670 180.233,318.000 180.189 C 318.330 180.146,318.870 180.011,319.200 179.888 C 319.530 179.765,320.250 179.579,320.800 179.475 C 321.350 179.370,323.240 178.900,325.000 178.429 C 326.760 177.958,328.470 177.516,328.800 177.447 C 329.130 177.377,329.670 177.228,330.000 177.114 C 330.330 177.001,332.400 176.500,334.600 176.001 C 336.800 175.501,339.140 174.917,339.800 174.702 C 340.460 174.487,341.630 174.169,342.400 173.996 C 343.170 173.822,345.240 173.285,347.000 172.803 C 351.008 171.704,351.535 171.578,352.931 171.374 C 353.554 171.283,354.232 171.104,354.438 170.976 C 354.644 170.849,355.297 170.657,355.887 170.550 C 356.478 170.443,357.960 170.000,359.181 169.567 C 360.401 169.133,361.801 168.719,362.292 168.645 C 362.782 168.572,363.441 168.298,363.756 168.037 C 364.187 167.679,364.399 167.675,364.614 168.023 C 364.784 168.298,365.002 168.332,365.150 168.108 C 365.288 167.900,367.560 167.242,370.200 166.645 C 372.840 166.049,375.270 165.485,375.600 165.392 C 375.930 165.299,377.010 165.030,378.000 164.796 C 381.808 163.893,386.400 162.357,386.400 161.987 C 386.400 161.763,384.678 161.601,382.300 161.603 C 380.045 161.605,368.840 161.560,357.400 161.503 C 345.960 161.447,315.141 161.446,288.914 161.502 M191.576 181.391 C 200.190 184.431,200.612 198.937,192.200 202.840 C 190.785 203.497,189.501 203.583,181.100 203.591 L 171.600 203.600 171.600 192.200 L 171.600 180.800 180.750 180.800 C 187.801 180.800,190.284 180.936,191.576 181.391 " stroke="none" fill="#0404fb" fill-rule="evenodd"></path><path id="path3" d="M40.300 96.698 C 42.115 96.772,45.085 96.772,46.900 96.698 C 48.715 96.623,47.230 96.563,43.600 96.563 C 39.970 96.563,38.485 96.623,40.300 96.698 M52.200 96.772 C 55.985 97.393,62.069 98.065,62.252 97.881 C 62.490 97.644,57.060 96.901,53.200 96.643 C 50.743 96.479,50.562 96.503,52.200 96.772 M33.505 97.083 C 34.002 97.179,34.722 97.175,35.105 97.075 C 35.487 96.975,35.080 96.896,34.200 96.901 C 33.320 96.905,33.007 96.987,33.505 97.083 M26.600 98.178 C 12.532 101.845,2.215 111.324,0.235 122.400 C 0.097 123.170,0.495 122.360,1.118 120.600 C 5.422 108.448,14.574 101.057,29.114 97.991 C 31.031 97.587,32.060 97.252,31.400 97.248 C 30.740 97.243,28.580 97.662,26.600 98.178 M46.400 97.573 C 57.227 98.310,58.242 98.356,56.200 98.015 C 55.100 97.832,51.410 97.587,48.000 97.471 C 42.633 97.288,42.418 97.302,46.400 97.573 M38.305 97.883 C 38.802 97.979,39.522 97.975,39.905 97.875 C 40.287 97.775,39.880 97.696,39.000 97.701 C 38.120 97.705,37.807 97.787,38.305 97.883 M35.300 98.276 C 35.685 98.376,36.315 98.376,36.700 98.276 C 37.085 98.175,36.770 98.093,36.000 98.093 C 35.230 98.093,34.915 98.175,35.300 98.276 M59.105 98.683 C 59.602 98.779,60.322 98.775,60.705 98.675 C 61.087 98.575,60.680 98.496,59.800 98.501 C 58.920 98.505,58.607 98.587,59.105 98.683 M26.188 100.568 C 15.458 104.701,8.496 111.637,5.220 121.459 C 4.549 123.471,4.010 125.541,4.022 126.059 C 4.034 126.577,4.397 125.650,4.827 124.000 C 7.699 113.001,15.178 105.090,26.800 100.757 C 28.450 100.142,29.530 99.639,29.200 99.639 C 28.870 99.639,27.515 100.057,26.188 100.568 M3.693 128.400 C 3.693 129.170,3.775 129.485,3.876 129.100 C 3.976 128.715,3.976 128.085,3.876 127.700 C 3.775 127.315,3.693 127.630,3.693 128.400 M3.337 133.800 C 3.339 135.560,3.409 136.230,3.493 135.289 C 3.578 134.349,3.577 132.909,3.491 132.089 C 3.405 131.270,3.336 132.040,3.337 133.800 M3.701 139.400 C 3.705 140.280,3.787 140.593,3.883 140.095 C 3.979 139.598,3.975 138.878,3.875 138.495 C 3.775 138.113,3.696 138.520,3.701 139.400 M4.487 144.400 C 4.483 144.950,4.624 145.850,4.800 146.400 C 5.231 147.744,5.231 146.292,4.800 144.600 C 4.526 143.522,4.494 143.502,4.487 144.400 M0.429 147.173 C 0.390 147.950,2.057 154.076,2.255 153.879 C 2.341 153.792,1.972 152.119,1.435 150.161 C 0.898 148.202,0.445 146.858,0.429 147.173 M5.461 148.786 C 5.724 150.304,6.730 153.241,6.766 152.600 C 6.779 152.380,6.436 151.120,6.005 149.800 C 5.573 148.480,5.328 148.024,5.461 148.786 M7.011 154.100 C 18.775 194.106,74.729 249.481,133.200 278.983 C 149.920 287.419,176.167 297.368,181.196 297.177 C 181.528 297.164,179.280 296.453,176.200 295.596 C 106.869 276.301,25.226 208.274,7.826 155.300 C 7.161 153.278,6.469 152.259,7.011 154.100 M3.396 157.600 C 8.140 173.657,24.827 198.198,44.894 218.630 L 52.387 226.260 52.500 237.630 L 52.613 249.000 52.706 237.655 L 52.800 226.310 46.533 219.855 C 26.214 198.928,12.119 178.888,4.996 160.800 C 3.519 157.049,2.821 155.653,3.396 157.600 M52.821 162.500 L 52.843 165.800 53.806 162.600 C 54.336 160.840,54.776 159.355,54.784 159.300 C 54.793 159.245,54.350 159.200,53.800 159.200 C 52.812 159.200,52.800 159.241,52.821 162.500 M147.698 205.900 L 147.800 252.200 159.900 252.306 L 172.000 252.412 172.000 238.806 L 172.000 225.200 177.785 225.200 L 183.569 225.200 185.502 228.500 C 186.566 230.315,190.128 236.433,193.418 242.095 L 199.400 252.391 210.200 252.302 L 221.000 252.214 210.328 252.100 L 199.655 251.987 191.749 238.394 L 183.843 224.800 177.722 224.800 L 171.600 224.800 171.600 238.400 L 171.600 252.000 159.797 252.000 L 147.993 252.000 148.097 205.800 C 148.154 180.390,148.064 159.600,147.898 159.600 C 147.732 159.600,147.642 180.435,147.698 205.900 M191.305 159.887 C 191.914 159.979,192.814 159.977,193.305 159.882 C 193.797 159.787,193.300 159.711,192.200 159.714 C 191.100 159.717,190.697 159.795,191.305 159.887 M131.385 162.100 L 129.400 164.200 131.500 162.215 C 132.655 161.123,133.600 160.178,133.600 160.115 C 133.600 159.817,133.229 160.149,131.385 162.100 M197.600 160.800 C 198.968 161.238,200.019 161.238,199.000 160.800 C 198.560 160.611,197.840 160.462,197.400 160.468 C 196.757 160.477,196.796 160.543,197.600 160.800 M200.000 161.368 C 200.000 161.460,200.879 161.828,201.952 162.184 C 203.026 162.541,205.086 163.545,206.530 164.416 C 209.301 166.087,210.635 166.571,208.600 165.167 C 205.906 163.308,200.000 160.699,200.000 161.368 M240.893 171.100 L 240.985 181.000 241.100 171.302 L 241.214 161.603 289.107 161.500 L 337.000 161.397 288.900 161.298 L 240.800 161.200 240.893 171.100 M341.700 161.494 C 342.745 161.576,344.455 161.576,345.500 161.494 C 346.545 161.412,345.690 161.344,343.600 161.344 C 341.510 161.344,340.655 161.412,341.700 161.494 M358.725 161.499 C 362.314 161.566,368.074 161.566,371.525 161.499 C 374.976 161.433,372.040 161.378,365.000 161.378 C 357.960 161.379,355.136 161.433,358.725 161.499 M386.400 162.000 C 386.400 162.501,386.824 162.501,387.600 162.000 C 388.085 161.686,388.028 161.611,387.300 161.606 C 386.805 161.603,386.400 161.780,386.400 162.000 M66.425 164.631 C 67.181 165.528,67.881 166.197,67.980 166.117 C 68.079 166.038,67.460 165.304,66.605 164.487 L 65.050 163.000 66.425 164.631 M125.734 168.142 C 124.890 169.099,122.400 171.866,120.200 174.290 C 116.911 177.914,116.790 178.085,119.524 175.249 C 123.629 170.989,127.753 166.400,127.475 166.400 C 127.361 166.400,126.578 167.184,125.734 168.142 M69.600 168.200 C 70.346 168.970,71.047 169.600,71.157 169.600 C 71.267 169.600,70.746 168.970,70.000 168.200 C 69.254 167.430,68.553 166.800,68.443 166.800 C 68.333 166.800,68.854 167.430,69.600 168.200 M75.200 174.400 C 77.228 176.600,78.978 178.400,79.088 178.400 C 79.198 178.400,77.628 176.600,75.600 174.400 C 73.572 172.200,71.822 170.400,71.712 170.400 C 71.602 170.400,73.172 172.200,75.200 174.400 M236.961 177.200 C 236.961 180.610,237.022 182.005,237.097 180.300 C 237.172 178.595,237.172 175.805,237.097 174.100 C 237.022 172.395,236.961 173.790,236.961 177.200 M80.600 180.400 C 81.459 181.280,82.252 182.000,82.362 182.000 C 82.472 182.000,81.859 181.280,81.000 180.400 C 80.141 179.520,79.348 178.800,79.238 178.800 C 79.128 178.800,79.741 179.520,80.600 180.400 M113.586 181.500 L 111.400 183.800 113.700 181.614 C 115.837 179.582,116.183 179.200,115.886 179.200 C 115.824 179.200,114.789 180.235,113.586 181.500 M171.600 192.200 L 171.600 203.600 181.013 203.600 C 191.413 203.600,192.255 203.445,194.749 201.080 C 196.192 199.710,197.998 196.316,197.983 195.000 C 197.978 194.560,197.645 195.153,197.242 196.318 C 195.153 202.368,193.230 203.200,181.337 203.200 L 172.000 203.200 172.000 192.200 L 172.000 181.200 180.940 181.200 C 192.318 181.200,193.814 181.675,196.434 186.125 C 197.106 187.266,197.528 187.750,197.372 187.200 C 195.877 181.948,192.895 180.800,180.750 180.800 L 171.600 180.800 171.600 192.200 M240.914 183.000 C 240.917 184.100,240.995 184.503,241.087 183.895 C 241.179 183.286,241.177 182.386,241.082 181.895 C 240.987 181.403,240.911 181.900,240.914 183.000 M84.383 184.500 C 85.364 185.545,86.219 186.400,86.283 186.400 C 86.584 186.400,86.266 186.041,84.500 184.383 L 82.600 182.600 84.383 184.500 M109.186 186.300 L 107.000 188.600 109.300 186.414 C 111.437 184.382,111.783 184.000,111.486 184.000 C 111.424 184.000,110.389 185.035,109.186 186.300 M254.105 185.087 C 254.714 185.179,255.614 185.177,256.105 185.082 C 256.597 184.987,256.100 184.911,255.000 184.914 C 253.900 184.917,253.497 184.995,254.105 185.087 M104.585 191.300 L 102.600 193.400 104.700 191.415 C 105.855 190.323,106.800 189.378,106.800 189.315 C 106.800 189.017,106.429 189.349,104.585 191.300 M198.114 192.200 C 198.117 193.300,198.195 193.703,198.287 193.095 C 198.379 192.486,198.377 191.586,198.282 191.095 C 198.187 190.603,198.111 191.100,198.114 192.200 M258.963 192.568 C 258.990 194.312,259.158 194.980,259.600 195.099 C 260.019 195.212,260.056 195.158,259.724 194.922 C 259.462 194.735,259.175 193.596,259.087 192.391 L 258.925 190.200 258.963 192.568 M65.349 193.316 C 66.420 194.572,67.382 195.600,67.486 195.600 C 67.754 195.600,64.423 191.661,63.864 191.317 C 63.609 191.161,64.277 192.060,65.349 193.316 M90.800 191.725 C 90.800 191.794,91.385 192.379,92.100 193.025 L 93.400 194.200 92.225 192.900 C 91.130 191.688,90.800 191.416,90.800 191.725 M267.600 192.800 L 266.600 193.120 267.700 193.160 C 268.305 193.182,268.800 193.020,268.800 192.800 C 268.800 192.580,268.755 192.418,268.700 192.440 C 268.645 192.462,268.150 192.624,267.600 192.800 M264.500 193.612 C 264.005 193.811,263.600 194.045,263.600 194.132 C 263.600 194.428,265.611 193.905,265.830 193.552 C 266.097 193.119,265.680 193.138,264.500 193.612 M68.364 196.733 C 68.580 197.136,69.071 197.721,69.455 198.033 C 69.887 198.384,69.790 198.104,69.201 197.300 C 68.151 195.865,67.757 195.598,68.364 196.733 M77.800 206.800 C 80.212 209.220,82.276 211.200,82.386 211.200 C 82.496 211.200,80.612 209.220,78.200 206.800 C 75.788 204.380,73.724 202.400,73.614 202.400 C 73.504 202.400,75.388 204.380,77.800 206.800 M92.800 220.600 C 93.546 221.370,94.247 222.000,94.357 222.000 C 94.467 222.000,93.946 221.370,93.200 220.600 C 92.454 219.830,91.753 219.200,91.643 219.200 C 91.533 219.200,92.054 219.830,92.800 220.600 M106.819 223.500 C 106.310 224.105,105.333 225.230,104.647 226.000 L 103.400 227.400 104.935 226.000 C 106.359 224.700,108.254 222.400,107.899 222.400 C 107.814 222.400,107.328 222.895,106.819 223.500 M330.307 229.490 C 331.026 229.579,332.106 229.577,332.707 229.486 C 333.308 229.395,332.720 229.322,331.400 229.324 C 330.080 229.326,329.588 229.401,330.307 229.490 M142.491 240.512 C 141.922 242.960,141.812 252.758,142.360 252.180 C 142.612 251.915,143.242 238.400,143.003 238.400 C 142.992 238.400,142.761 239.350,142.491 240.512 M76.800 249.594 L 76.800 251.988 65.300 252.100 L 53.800 252.213 65.500 252.306 L 77.200 252.400 77.200 250.200 C 77.200 247.481,76.661 247.324,82.476 251.734 C 105.861 269.471,130.453 283.299,154.826 292.414 C 161.460 294.896,171.509 298.097,172.072 297.909 C 172.259 297.847,169.915 297.041,166.863 296.118 C 139.423 287.819,104.052 268.730,79.806 249.135 C 76.803 246.708,76.800 246.708,76.800 249.594 M52.828 250.700 C 52.813 251.415,52.980 252.000,53.200 252.000 C 53.675 252.000,53.675 251.305,53.200 250.200 C 52.912 249.530,52.852 249.611,52.828 250.700 M264.100 251.876 C 264.485 251.976,265.115 251.976,265.500 251.876 C 265.885 251.775,265.570 251.693,264.800 251.693 C 264.030 251.693,263.715 251.775,264.100 251.876 M269.500 251.889 C 270.215 251.978,271.385 251.978,272.100 251.889 C 272.815 251.801,272.230 251.728,270.800 251.728 C 269.370 251.728,268.785 251.801,269.500 251.889 M328.305 251.883 C 328.802 251.979,329.522 251.975,329.905 251.875 C 330.287 251.775,329.880 251.696,329.000 251.701 C 328.120 251.705,327.807 251.787,328.305 251.883 M347.525 251.899 C 350.893 251.966,356.293 251.966,359.525 251.899 C 362.756 251.832,360.000 251.777,353.400 251.777 C 346.800 251.777,344.156 251.832,347.525 251.899 M250.408 267.497 C 248.368 283.704,239.959 293.467,224.000 298.158 C 222.130 298.708,220.960 299.166,221.400 299.176 C 222.904 299.212,231.095 296.150,234.250 294.374 C 242.686 289.624,249.935 278.742,250.463 270.036 C 250.497 269.466,250.649 269.900,250.800 271.000 C 251.009 272.522,251.089 271.876,251.137 268.300 C 251.214 262.581,251.050 262.400,250.408 267.497 M249.901 276.495 C 247.375 288.711,238.257 297.150,223.400 301.022 C 221.420 301.538,220.164 301.970,220.608 301.980 C 221.590 302.004,226.620 300.650,229.508 299.583 C 238.787 296.158,245.818 289.492,248.962 281.141 C 249.935 278.554,251.049 273.716,250.741 273.408 C 250.649 273.316,250.271 274.705,249.901 276.495 M185.565 298.216 C 186.756 298.506,188.646 298.837,189.765 298.952 C 191.022 299.081,190.424 298.872,188.200 298.404 C 184.121 297.547,182.278 297.415,185.565 298.216 M174.371 298.635 C 175.346 298.940,176.786 299.281,177.571 299.391 C 178.357 299.501,177.740 299.237,176.200 298.804 C 173.028 297.914,171.673 297.788,174.371 298.635 M180.000 300.000 C 180.550 300.176,181.360 300.320,181.800 300.320 C 182.433 300.320,182.392 300.254,181.600 300.000 C 181.050 299.824,180.240 299.680,179.800 299.680 C 179.167 299.680,179.208 299.746,180.000 300.000 M195.505 299.883 C 196.002 299.979,196.722 299.975,197.105 299.875 C 197.487 299.775,197.080 299.696,196.200 299.701 C 195.320 299.705,195.007 299.787,195.505 299.883 M216.500 299.876 C 216.885 299.976,217.515 299.976,217.900 299.876 C 218.285 299.775,217.970 299.693,217.200 299.693 C 216.430 299.693,216.115 299.775,216.500 299.876 M199.705 300.287 C 200.314 300.379,201.214 300.377,201.705 300.282 C 202.197 300.187,201.700 300.111,200.600 300.114 C 199.500 300.117,199.097 300.195,199.705 300.287 M212.905 300.287 C 213.514 300.379,214.414 300.377,214.905 300.282 C 215.397 300.187,214.900 300.111,213.800 300.114 C 212.700 300.117,212.297 300.195,212.905 300.287 M205.700 300.691 C 206.525 300.778,207.875 300.778,208.700 300.691 C 209.525 300.605,208.850 300.534,207.200 300.534 C 205.550 300.534,204.875 300.605,205.700 300.691 M185.800 301.200 C 186.460 301.368,187.540 301.506,188.200 301.507 C 189.209 301.508,189.145 301.455,187.800 301.177 C 185.774 300.758,184.137 300.777,185.800 301.200 M192.705 302.283 C 193.202 302.379,193.922 302.375,194.305 302.275 C 194.687 302.175,194.280 302.096,193.400 302.101 C 192.520 302.105,192.207 302.187,192.705 302.283 M217.700 302.276 C 218.085 302.376,218.715 302.376,219.100 302.276 C 219.485 302.175,219.170 302.093,218.400 302.093 C 217.630 302.093,217.315 302.175,217.700 302.276 M196.705 302.683 C 197.202 302.779,197.922 302.775,198.305 302.675 C 198.687 302.575,198.280 302.496,197.400 302.501 C 196.520 302.505,196.207 302.587,196.705 302.683 M214.300 302.682 C 214.795 302.778,215.605 302.778,216.100 302.682 C 216.595 302.587,216.190 302.509,215.200 302.509 C 214.210 302.509,213.805 302.587,214.300 302.682 M203.700 303.097 C 205.405 303.172,208.195 303.172,209.900 303.097 C 211.605 303.022,210.210 302.961,206.800 302.961 C 203.390 302.961,201.995 303.022,203.700 303.097 " stroke="none" fill="#5667fc" fill-rule="evenodd"></path><path id="path4" d="M40.505 102.687 C 41.114 102.779,42.014 102.777,42.505 102.682 C 42.997 102.587,42.500 102.511,41.400 102.514 C 40.300 102.517,39.897 102.595,40.505 102.687 M51.300 102.687 C 51.905 102.778,52.895 102.778,53.500 102.687 C 54.105 102.595,53.610 102.520,52.400 102.520 C 51.190 102.520,50.695 102.595,51.300 102.687 M56.500 103.076 C 56.885 103.176,57.515 103.176,57.900 103.076 C 58.285 102.975,57.970 102.893,57.200 102.893 C 56.430 102.893,56.115 102.975,56.500 103.076 M29.400 104.569 C 19.149 107.986,12.843 113.883,9.829 122.871 C 9.263 124.559,8.810 126.359,8.822 126.871 C 8.834 127.382,9.187 126.490,9.607 124.889 C 12.213 114.941,19.478 107.875,30.425 104.640 C 32.281 104.091,33.440 103.641,33.000 103.639 C 32.560 103.637,30.940 104.056,29.400 104.569 M69.600 105.200 C 70.150 105.376,70.960 105.520,71.400 105.520 C 72.033 105.520,71.992 105.454,71.200 105.200 C 70.650 105.024,69.840 104.880,69.400 104.880 C 68.767 104.880,68.808 104.946,69.600 105.200 M76.200 106.746 C 76.640 106.939,77.630 107.210,78.400 107.350 C 79.361 107.524,79.549 107.494,79.000 107.254 C 78.560 107.061,77.570 106.790,76.800 106.650 C 75.839 106.476,75.651 106.506,76.200 106.746 M81.800 108.400 C 82.900 108.806,84.070 109.138,84.400 109.138 C 84.730 109.138,84.100 108.806,83.000 108.400 C 81.900 107.994,80.730 107.662,80.400 107.662 C 80.070 107.662,80.700 107.994,81.800 108.400 M90.000 110.916 C 90.110 111.034,92.130 111.855,94.488 112.740 C 104.208 116.389,119.522 123.592,128.900 128.924 C 131.045 130.144,132.800 131.010,132.800 130.848 C 132.800 130.394,117.713 122.400,111.000 119.298 C 103.181 115.684,89.271 110.132,90.000 110.916 M61.300 111.497 C 62.785 111.574,65.215 111.574,66.700 111.497 C 68.185 111.420,66.970 111.357,64.000 111.357 C 61.030 111.357,59.815 111.420,61.300 111.497 M71.300 111.876 C 71.685 111.976,72.315 111.976,72.700 111.876 C 73.085 111.775,72.770 111.693,72.000 111.693 C 71.230 111.693,70.915 111.775,71.300 111.876 M50.600 112.800 C 49.581 113.238,50.632 113.238,52.000 112.800 C 52.804 112.543,52.843 112.477,52.200 112.468 C 51.760 112.462,51.040 112.611,50.600 112.800 M44.619 115.165 C 41.281 116.892,38.080 119.392,36.717 121.336 C 36.200 122.073,37.138 121.387,38.968 119.689 C 41.120 117.691,43.125 116.279,45.353 115.192 C 47.139 114.321,48.385 113.606,48.122 113.604 C 47.858 113.602,46.282 114.304,44.619 115.165 M84.000 114.000 C 84.550 114.176,85.360 114.320,85.800 114.320 C 86.433 114.320,86.392 114.254,85.600 114.000 C 85.050 113.824,84.240 113.680,83.800 113.680 C 83.167 113.680,83.208 113.746,84.000 114.000 M88.209 114.961 C 89.093 115.256,90.443 115.604,91.209 115.735 C 92.535 115.962,92.525 115.949,90.991 115.439 C 90.107 115.144,88.757 114.796,87.991 114.665 C 86.665 114.438,86.675 114.451,88.209 114.961 M98.800 118.174 C 107.573 121.163,114.170 123.900,123.564 128.450 C 128.055 130.625,131.788 132.345,131.862 132.272 C 132.823 131.311,95.782 115.825,93.015 116.031 C 92.787 116.048,95.390 117.012,98.800 118.174 M34.825 124.160 C 33.959 125.561,32.377 129.788,32.429 130.563 C 32.445 130.803,32.809 130.012,33.237 128.804 C 33.666 127.596,34.465 125.751,35.012 124.704 C 36.165 122.499,36.053 122.173,34.825 124.160 M8.493 129.600 C 8.493 130.370,8.575 130.685,8.676 130.300 C 8.776 129.915,8.776 129.285,8.676 128.900 C 8.575 128.515,8.493 128.830,8.493 129.600 M31.748 138.000 C 31.748 140.310,31.814 141.255,31.895 140.100 C 31.976 138.945,31.976 137.055,31.895 135.900 C 31.814 134.745,31.748 135.690,31.748 138.000 M135.600 134.179 C 135.600 134.289,136.140 134.659,136.800 135.000 C 137.460 135.341,138.000 135.531,138.000 135.421 C 138.000 135.311,137.460 134.941,136.800 134.600 C 136.140 134.259,135.600 134.069,135.600 134.179 M139.800 135.407 C 140.240 135.766,140.960 136.235,141.400 136.451 L 142.200 136.844 141.400 136.193 C 140.960 135.834,140.240 135.365,139.800 135.149 L 139.000 134.756 139.800 135.407 M8.501 138.200 C 8.505 139.080,8.587 139.393,8.683 138.895 C 8.779 138.398,8.775 137.678,8.675 137.295 C 8.575 136.913,8.496 137.320,8.501 138.200 M141.200 137.316 C 141.200 137.463,145.277 139.979,147.265 141.060 C 147.644 141.266,147.424 140.085,147.014 139.712 C 146.826 139.540,146.801 139.625,146.959 139.900 C 147.336 140.555,146.779 140.537,145.789 139.862 C 144.282 138.835,141.200 137.125,141.200 137.316 M149.362 141.822 C 149.469 142.548,151.591 144.053,152.082 143.750 C 152.633 143.409,152.019 142.818,151.371 143.067 C 150.991 143.212,150.811 143.094,150.884 142.749 C 150.956 142.408,150.720 142.248,150.260 142.327 C 149.845 142.398,149.628 142.278,149.766 142.054 C 149.902 141.835,149.846 141.552,149.642 141.426 C 149.437 141.299,149.312 141.478,149.362 141.822 M9.831 146.200 C 10.111 148.099,12.788 156.545,13.032 156.301 C 13.126 156.208,12.830 155.067,12.376 153.766 C 11.922 152.465,11.110 149.870,10.573 148.000 C 10.035 146.130,9.701 145.320,9.831 146.200 M155.057 145.507 C 154.909 145.748,154.970 146.058,155.193 146.196 C 155.417 146.334,155.600 146.312,155.600 146.147 C 155.600 145.982,155.864 146.196,156.187 146.624 C 156.510 147.051,156.780 147.231,156.787 147.024 C 156.794 146.816,157.064 146.996,157.387 147.424 C 157.710 147.851,157.980 148.074,157.987 147.919 C 157.994 147.765,158.432 148.035,158.959 148.519 C 159.487 149.004,161.602 150.536,163.659 151.924 C 165.717 153.313,166.770 153.886,166.000 153.197 C 164.230 151.616,157.343 146.697,157.008 146.776 C 156.870 146.809,156.435 146.438,156.042 145.953 C 155.584 145.387,155.231 145.227,155.057 145.507 M13.425 157.600 C 13.891 159.604,20.435 172.334,23.602 177.400 C 32.603 191.797,43.344 204.869,56.781 217.779 C 61.072 221.903,60.535 221.281,54.199 214.793 C 36.728 196.901,23.932 179.547,16.607 163.812 C 13.451 157.033,13.161 156.466,13.425 157.600 M36.828 159.400 C 36.828 159.620,37.086 160.250,37.400 160.800 C 37.714 161.350,37.972 161.620,37.972 161.400 C 37.972 161.180,37.714 160.550,37.400 160.000 C 37.086 159.450,36.828 159.180,36.828 159.400 M40.793 167.435 C 63.764 208.402,114.282 251.093,164.483 271.965 C 170.619 274.516,181.928 278.491,182.503 278.299 C 182.696 278.235,181.266 277.671,179.327 277.046 C 126.743 260.112,63.497 209.965,41.412 167.697 C 40.807 166.540,40.122 165.476,39.890 165.332 C 39.658 165.188,40.064 166.135,40.793 167.435 M219.288 173.826 C 219.886 174.449,220.469 174.864,220.583 174.750 C 220.697 174.636,220.207 174.127,219.495 173.619 L 218.200 172.695 219.288 173.826 M228.000 180.770 C 228.000 180.976,228.540 181.530,229.200 182.000 C 229.860 182.470,230.400 182.782,230.400 182.693 C 230.400 182.605,229.860 182.051,229.200 181.463 C 228.540 180.875,228.000 180.563,228.000 180.770 M312.600 184.400 C 312.096 184.617,312.022 184.744,312.400 184.744 C 312.730 184.744,313.360 184.589,313.800 184.400 C 314.304 184.183,314.378 184.056,314.000 184.056 C 313.670 184.056,313.040 184.211,312.600 184.400 M234.000 185.752 C 234.000 185.852,234.765 186.523,235.700 187.244 C 237.270 188.455,237.323 188.470,236.400 187.441 C 235.452 186.385,234.000 185.363,234.000 185.752 M236.990 220.200 C 236.990 237.360,237.040 244.322,237.100 235.670 C 237.160 227.019,237.160 212.979,237.100 204.470 C 237.040 195.962,236.990 203.040,236.990 220.200 M65.200 225.800 C 66.617 227.230,67.867 228.400,67.977 228.400 C 68.087 228.400,67.017 227.230,65.600 225.800 C 64.183 224.370,62.933 223.200,62.823 223.200 C 62.713 223.200,63.783 224.370,65.200 225.800 M69.200 229.498 C 69.200 230.938,97.834 252.974,104.400 256.587 C 105.876 257.399,103.831 255.868,98.800 252.392 C 89.895 246.240,79.260 238.010,72.300 231.884 C 70.595 230.384,69.200 229.310,69.200 229.498 M334.300 229.482 C 334.795 229.578,335.605 229.578,336.100 229.482 C 336.595 229.387,336.190 229.309,335.200 229.309 C 334.210 229.309,333.805 229.387,334.300 229.482 M341.500 229.482 C 341.995 229.578,342.805 229.578,343.300 229.482 C 343.795 229.387,343.390 229.309,342.400 229.309 C 341.410 229.309,341.005 229.387,341.500 229.482 M369.000 229.484 C 380.021 229.766,390.401 229.774,390.400 229.500 C 390.400 229.335,384.595 229.238,377.500 229.286 C 370.405 229.333,366.580 229.422,369.000 229.484 M260.905 251.887 C 261.514 251.979,262.414 251.977,262.905 251.882 C 263.397 251.787,262.900 251.711,261.800 251.714 C 260.700 251.717,260.297 251.795,260.905 251.887 M266.500 251.876 C 266.885 251.976,267.515 251.976,267.900 251.876 C 268.285 251.775,267.970 251.693,267.200 251.693 C 266.430 251.693,266.115 251.775,266.500 251.876 M276.900 251.887 C 277.505 251.978,278.495 251.978,279.100 251.887 C 279.705 251.795,279.210 251.720,278.000 251.720 C 276.790 251.720,276.295 251.795,276.900 251.887 M282.500 251.876 C 282.885 251.976,283.515 251.976,283.900 251.876 C 284.285 251.775,283.970 251.693,283.200 251.693 C 282.430 251.693,282.115 251.775,282.500 251.876 M335.905 251.883 C 336.402 251.979,337.122 251.975,337.505 251.875 C 337.887 251.775,337.480 251.696,336.600 251.701 C 335.720 251.705,335.407 251.787,335.905 251.883 M339.100 251.882 C 339.595 251.978,340.405 251.978,340.900 251.882 C 341.395 251.787,340.990 251.709,340.000 251.709 C 339.010 251.709,338.605 251.787,339.100 251.882 M367.113 251.895 C 368.276 251.976,370.076 251.976,371.113 251.893 C 372.151 251.811,371.200 251.745,369.000 251.746 C 366.800 251.747,365.951 251.814,367.113 251.895 M244.463 258.700 L 244.526 261.400 244.800 259.400 C 245.024 257.767,245.086 257.651,245.137 258.767 C 245.172 259.518,245.312 260.022,245.448 259.885 C 245.819 259.514,245.210 256.000,244.775 256.000 C 244.569 256.000,244.428 257.215,244.463 258.700 M105.970 257.604 C 108.938 260.167,125.234 269.617,135.800 274.902 C 146.416 280.211,162.901 287.232,163.455 286.679 C 163.547 286.587,162.224 286.015,160.515 285.409 C 146.173 280.317,126.807 270.449,108.000 258.648 C 106.350 257.613,105.436 257.143,105.970 257.604 M245.709 264.400 C 245.709 265.390,245.787 265.795,245.882 265.300 C 245.978 264.805,245.978 263.995,245.882 263.500 C 245.787 263.005,245.709 263.410,245.709 264.400 M241.210 270.480 C 238.717 274.779,234.716 278.005,228.800 280.486 C 227.370 281.086,226.429 281.582,226.708 281.588 C 230.550 281.677,239.096 275.298,241.806 270.319 C 243.342 267.496,242.866 267.625,241.210 270.480 M243.612 275.647 C 241.079 283.088,235.416 288.653,226.670 292.296 C 224.872 293.045,223.940 293.546,224.600 293.409 C 230.478 292.192,239.001 285.658,242.090 280.000 C 243.474 277.466,245.038 273.305,244.725 272.992 C 244.640 272.906,244.139 274.101,243.612 275.647 M183.800 278.800 C 184.240 278.989,184.870 279.144,185.200 279.144 C 185.578 279.144,185.504 279.017,185.000 278.800 C 184.560 278.611,183.930 278.456,183.600 278.456 C 183.222 278.456,183.296 278.583,183.800 278.800 M188.200 280.000 C 188.640 280.189,189.360 280.338,189.800 280.332 C 190.443 280.323,190.404 280.257,189.600 280.000 C 188.232 279.562,187.181 279.562,188.200 280.000 M201.700 282.676 C 202.085 282.776,202.715 282.776,203.100 282.676 C 203.485 282.575,203.170 282.493,202.400 282.493 C 201.630 282.493,201.315 282.575,201.700 282.676 M205.505 283.083 C 206.002 283.179,206.722 283.175,207.105 283.075 C 207.487 282.975,207.080 282.896,206.200 282.901 C 205.320 282.905,205.007 282.987,205.505 283.083 M217.905 283.083 C 218.402 283.179,219.122 283.175,219.505 283.075 C 219.887 282.975,219.480 282.896,218.600 282.901 C 217.720 282.905,217.407 282.987,217.905 283.083 M211.907 283.490 C 212.626 283.579,213.706 283.577,214.307 283.486 C 214.908 283.395,214.320 283.322,213.000 283.324 C 211.680 283.326,211.188 283.401,211.907 283.490 M164.038 286.955 C 164.347 287.286,171.221 289.609,171.775 289.570 C 172.009 289.553,170.701 289.021,168.870 288.387 C 164.466 286.863,163.755 286.652,164.038 286.955 M173.000 290.000 C 173.440 290.189,174.070 290.344,174.400 290.344 C 174.778 290.344,174.704 290.217,174.200 290.000 C 173.760 289.811,173.130 289.656,172.800 289.656 C 172.422 289.656,172.496 289.783,173.000 290.000 M175.800 290.800 C 176.240 290.989,176.870 291.144,177.200 291.144 C 177.578 291.144,177.504 291.017,177.000 290.800 C 176.560 290.611,175.930 290.456,175.600 290.456 C 175.222 290.456,175.296 290.583,175.800 290.800 M196.900 295.076 C 197.285 295.176,197.915 295.176,198.300 295.076 C 198.685 294.975,198.370 294.893,197.600 294.893 C 196.830 294.893,196.515 294.975,196.900 295.076 M201.091 295.489 C 201.801 295.577,203.061 295.579,203.891 295.492 C 204.721 295.405,204.140 295.333,202.600 295.331 C 201.060 295.329,200.381 295.400,201.091 295.489 M211.107 295.490 C 211.826 295.579,212.906 295.577,213.507 295.486 C 214.108 295.395,213.520 295.322,212.200 295.324 C 210.880 295.326,210.388 295.401,211.107 295.490 " stroke="none" fill="#fc6064" fill-rule="evenodd"></path></g></svg>